<mxfile host="app.diagrams.net" modified="2020-06-01T07:37:29.457Z" agent="5.0 (Macintosh; Intel Mac OS X 10_14_5) AppleWebKit/537.36 (KHTML, like Gecko) Chrome/83.0.4103.61 Safari/537.36 Edg/83.0.478.37" etag="Aapirf-T6qJj8ro-TWus" version="13.1.11" type="github">
  <diagram id="YMeWcaonRKde9pnVvLDv" name="Page-1">
    <mxGraphModel dx="1426" dy="654" grid="1" gridSize="10" guides="1" tooltips="1" connect="1" arrows="1" fold="1" page="1" pageScale="1" pageWidth="850" pageHeight="1100" math="0" shadow="0">
      <root>
        <mxCell id="0" />
        <mxCell id="1" parent="0" />
        <mxCell id="kvG1uGzXW2yJ7lgL80eX-1" value="" style="swimlane;shadow=0;labelBackgroundColor=#007FFF;strokeColor=#4277BB;fillColor=none;gradientColor=none;fontColor=#000000;align=right;collapsible=0;startSize=0;strokeWidth=2;swimlaneFillColor=none;" vertex="1" parent="1">
          <mxGeometry x="40" y="160" width="760" height="170" as="geometry" />
        </mxCell>
        <mxCell id="kvG1uGzXW2yJ7lgL80eX-2" value="&lt;font style=&quot;font-size: 14px&quot;&gt;Sitecore Environments&lt;/font&gt;" style="text;html=1;align=center;verticalAlign=middle;shadow=0;dashed=0;strokeColor=#6c8ebf;fillColor=#dae8fc;labelBackgroundColor=none;fontStyle=1;fontSize=12;spacingLeft=0;strokeWidth=3;" vertex="1" parent="kvG1uGzXW2yJ7lgL80eX-1">
          <mxGeometry y="2.5" width="760" height="35" as="geometry" />
        </mxCell>
        <mxCell id="kvG1uGzXW2yJ7lgL80eX-48" value="&lt;font style=&quot;font-size: 14px&quot;&gt;Dist/app&lt;/font&gt;" style="ellipse;whiteSpace=wrap;html=1;" vertex="1" parent="kvG1uGzXW2yJ7lgL80eX-1">
          <mxGeometry x="75" y="55" width="80" height="50" as="geometry" />
        </mxCell>
        <mxCell id="kvG1uGzXW2yJ7lgL80eX-66" value="" style="html=1;verticalLabelPosition=bottom;align=center;labelBackgroundColor=#ffffff;verticalAlign=top;strokeWidth=2;strokeColor=#0080F0;shadow=0;dashed=0;shape=mxgraph.ios7.icons.data;" vertex="1" parent="kvG1uGzXW2yJ7lgL80eX-1">
          <mxGeometry x="563.5" y="60" width="41" height="50" as="geometry" />
        </mxCell>
        <mxCell id="kvG1uGzXW2yJ7lgL80eX-73" value="" style="shape=image;imageAspect=0;aspect=fixed;verticalLabelPosition=bottom;verticalAlign=top;image=https://cdn.iconscout.com/icon/free/png-512/sitecore-2-569212.png;" vertex="1" parent="kvG1uGzXW2yJ7lgL80eX-1">
          <mxGeometry x="330" y="37.5" width="102.5" height="102.5" as="geometry" />
        </mxCell>
        <mxCell id="kvG1uGzXW2yJ7lgL80eX-26" value="" style="edgeStyle=orthogonalEdgeStyle;rounded=0;orthogonalLoop=1;jettySize=auto;html=1;entryX=0.5;entryY=1;entryDx=0;entryDy=0;" edge="1" parent="1" source="kvG1uGzXW2yJ7lgL80eX-19" target="kvG1uGzXW2yJ7lgL80eX-78">
          <mxGeometry relative="1" as="geometry">
            <mxPoint x="155" y="830" as="targetPoint" />
          </mxGeometry>
        </mxCell>
        <mxCell id="kvG1uGzXW2yJ7lgL80eX-19" value="&lt;font style=&quot;font-size: 14px&quot;&gt;ReactJS Project&lt;/font&gt;" style="shape=image;html=1;verticalAlign=top;verticalLabelPosition=bottom;labelBackgroundColor=#ffffff;imageAspect=0;aspect=fixed;image=https://cdn4.iconfinder.com/data/icons/logos-3/600/React.js_logo-128.png" vertex="1" parent="1">
          <mxGeometry x="130" y="940" width="50" height="50" as="geometry" />
        </mxCell>
        <mxCell id="kvG1uGzXW2yJ7lgL80eX-28" value="" style="edgeStyle=orthogonalEdgeStyle;rounded=0;orthogonalLoop=1;jettySize=auto;html=1;entryX=0.5;entryY=1;entryDx=0;entryDy=0;" edge="1" parent="1" source="kvG1uGzXW2yJ7lgL80eX-20" target="kvG1uGzXW2yJ7lgL80eX-79">
          <mxGeometry relative="1" as="geometry">
            <mxPoint x="625" y="820" as="targetPoint" />
          </mxGeometry>
        </mxCell>
        <mxCell id="kvG1uGzXW2yJ7lgL80eX-20" value="&lt;font style=&quot;font-size: 14px&quot;&gt;.Net Project Folowing&amp;nbsp;&lt;b&gt;Helix&lt;/b&gt;&amp;nbsp;Structure&lt;br&gt;contains: *.config *.yml&lt;br&gt;&lt;br&gt;&lt;/font&gt;" style="outlineConnect=0;dashed=0;verticalLabelPosition=bottom;verticalAlign=top;align=center;html=1;shape=mxgraph.aws3.android;fillColor=#115193;gradientColor=none;" vertex="1" parent="1">
          <mxGeometry x="600" y="940" width="50" height="50" as="geometry" />
        </mxCell>
        <mxCell id="kvG1uGzXW2yJ7lgL80eX-21" value="" style="swimlane;shadow=0;labelBackgroundColor=#007FFF;strokeColor=#4277BB;fillColor=none;gradientColor=none;fontColor=#000000;align=right;collapsible=0;startSize=0;strokeWidth=2;swimlaneFillColor=none;" vertex="1" parent="1">
          <mxGeometry x="40" y="670" width="760" height="220" as="geometry" />
        </mxCell>
        <mxCell id="kvG1uGzXW2yJ7lgL80eX-22" value="Gitlab CI" style="text;html=1;align=center;verticalAlign=middle;shadow=0;dashed=0;strokeColor=#6c8ebf;fillColor=#dae8fc;labelBackgroundColor=none;fontStyle=1;fontSize=12;spacingLeft=0;strokeWidth=3;" vertex="1" parent="kvG1uGzXW2yJ7lgL80eX-21">
          <mxGeometry width="760" height="35" as="geometry" />
        </mxCell>
        <mxCell id="kvG1uGzXW2yJ7lgL80eX-69" value="" style="shape=image;html=1;verticalAlign=top;verticalLabelPosition=bottom;labelBackgroundColor=#ffffff;imageAspect=0;aspect=fixed;image=https://cdn4.iconfinder.com/data/icons/logos-and-brands/512/144_Gitlab_logo_logos-128.png" vertex="1" parent="kvG1uGzXW2yJ7lgL80eX-21">
          <mxGeometry x="328" y="35" width="104" height="104" as="geometry" />
        </mxCell>
        <mxCell id="kvG1uGzXW2yJ7lgL80eX-78" value="" style="aspect=fixed;perimeter=ellipsePerimeter;html=1;align=center;shadow=0;dashed=0;fontColor=#4277BB;labelBackgroundColor=#ffffff;fontSize=12;spacingTop=3;image;image=img/lib/ibm/devops/build_test.svg;" vertex="1" parent="kvG1uGzXW2yJ7lgL80eX-21">
          <mxGeometry x="85" y="110" width="60" height="60" as="geometry" />
        </mxCell>
        <mxCell id="kvG1uGzXW2yJ7lgL80eX-79" value="" style="aspect=fixed;perimeter=ellipsePerimeter;html=1;align=center;shadow=0;dashed=0;fontColor=#4277BB;labelBackgroundColor=#ffffff;fontSize=12;spacingTop=3;image;image=img/lib/ibm/devops/build_test.svg;" vertex="1" parent="kvG1uGzXW2yJ7lgL80eX-21">
          <mxGeometry x="555" y="110" width="60" height="60" as="geometry" />
        </mxCell>
        <mxCell id="kvG1uGzXW2yJ7lgL80eX-38" value="" style="swimlane;shadow=0;labelBackgroundColor=#007FFF;strokeColor=#4277BB;fillColor=none;gradientColor=none;fontColor=#000000;align=right;collapsible=0;startSize=0;strokeWidth=2;swimlaneFillColor=none;" vertex="1" parent="1">
          <mxGeometry x="40" y="410" width="760" height="230" as="geometry" />
        </mxCell>
        <mxCell id="kvG1uGzXW2yJ7lgL80eX-39" value="&lt;font style=&quot;font-size: 14px&quot;&gt;Specific Runner&lt;/font&gt;" style="text;html=1;align=center;verticalAlign=middle;shadow=0;dashed=0;strokeColor=#6c8ebf;fillColor=#dae8fc;labelBackgroundColor=none;fontStyle=1;fontSize=12;spacingLeft=0;strokeWidth=3;" vertex="1" parent="kvG1uGzXW2yJ7lgL80eX-38">
          <mxGeometry width="760" height="35" as="geometry" />
        </mxCell>
        <mxCell id="kvG1uGzXW2yJ7lgL80eX-40" value="&lt;font style=&quot;font-size: 14px&quot;&gt;JSS CLI installed&lt;br&gt;Unicorn PSAPI installed&lt;br&gt;&lt;/font&gt;" style="text;html=1;align=center;verticalAlign=middle;resizable=0;points=[];autosize=1;" vertex="1" parent="kvG1uGzXW2yJ7lgL80eX-38">
          <mxGeometry x="305" y="122.6" width="160" height="40" as="geometry" />
        </mxCell>
        <mxCell id="kvG1uGzXW2yJ7lgL80eX-41" value="&lt;font style=&quot;font-size: 14px&quot;&gt;Sitecore Runner&lt;/font&gt;" style="ellipse;whiteSpace=wrap;html=1;" vertex="1" parent="kvG1uGzXW2yJ7lgL80eX-38">
          <mxGeometry x="75" y="122.6" width="80" height="50" as="geometry" />
        </mxCell>
        <mxCell id="kvG1uGzXW2yJ7lgL80eX-42" value="&lt;font style=&quot;font-size: 14px&quot;&gt;SitecoreJSS Runner&lt;/font&gt;" style="ellipse;whiteSpace=wrap;html=1;" vertex="1" parent="kvG1uGzXW2yJ7lgL80eX-38">
          <mxGeometry x="540" y="122.6" width="90" height="50" as="geometry" />
        </mxCell>
        <mxCell id="kvG1uGzXW2yJ7lgL80eX-71" value="" style="verticalLabelPosition=bottom;html=1;verticalAlign=top;align=center;strokeColor=none;fillColor=#00BEF2;shape=mxgraph.azure.laptop;pointerEvents=1;" vertex="1" parent="kvG1uGzXW2yJ7lgL80eX-38">
          <mxGeometry x="340" y="50" width="80" height="60" as="geometry" />
        </mxCell>
        <mxCell id="kvG1uGzXW2yJ7lgL80eX-45" style="edgeStyle=orthogonalEdgeStyle;rounded=0;orthogonalLoop=1;jettySize=auto;html=1;exitX=0.5;exitY=0;exitDx=0;exitDy=0;entryX=0.5;entryY=1;entryDx=0;entryDy=0;" edge="1" parent="1" source="kvG1uGzXW2yJ7lgL80eX-78" target="kvG1uGzXW2yJ7lgL80eX-41">
          <mxGeometry relative="1" as="geometry">
            <mxPoint x="155" y="770" as="sourcePoint" />
          </mxGeometry>
        </mxCell>
        <mxCell id="kvG1uGzXW2yJ7lgL80eX-47" style="edgeStyle=orthogonalEdgeStyle;rounded=0;orthogonalLoop=1;jettySize=auto;html=1;exitX=0.5;exitY=0;exitDx=0;exitDy=0;entryX=0.5;entryY=1;entryDx=0;entryDy=0;" edge="1" parent="1" source="kvG1uGzXW2yJ7lgL80eX-79" target="kvG1uGzXW2yJ7lgL80eX-42">
          <mxGeometry relative="1" as="geometry">
            <mxPoint x="625" y="770" as="sourcePoint" />
          </mxGeometry>
        </mxCell>
        <mxCell id="kvG1uGzXW2yJ7lgL80eX-49" value="" style="edgeStyle=orthogonalEdgeStyle;rounded=0;orthogonalLoop=1;jettySize=auto;html=1;" edge="1" parent="1" source="kvG1uGzXW2yJ7lgL80eX-41" target="kvG1uGzXW2yJ7lgL80eX-48">
          <mxGeometry relative="1" as="geometry" />
        </mxCell>
        <mxCell id="kvG1uGzXW2yJ7lgL80eX-50" value="&lt;font style=&quot;font-size: 14px&quot;&gt;Deploy files&lt;/font&gt;" style="edgeLabel;html=1;align=center;verticalAlign=middle;resizable=0;points=[];" vertex="1" connectable="0" parent="kvG1uGzXW2yJ7lgL80eX-49">
          <mxGeometry x="0.2857" y="2" relative="1" as="geometry">
            <mxPoint x="2" y="106" as="offset" />
          </mxGeometry>
        </mxCell>
        <mxCell id="kvG1uGzXW2yJ7lgL80eX-52" value="" style="edgeStyle=orthogonalEdgeStyle;rounded=0;orthogonalLoop=1;jettySize=auto;html=1;entryX=0.533;entryY=1.05;entryDx=0;entryDy=0;entryPerimeter=0;" edge="1" parent="1" source="kvG1uGzXW2yJ7lgL80eX-42" target="kvG1uGzXW2yJ7lgL80eX-66">
          <mxGeometry relative="1" as="geometry">
            <mxPoint x="625" y="310" as="targetPoint" />
          </mxGeometry>
        </mxCell>
        <mxCell id="kvG1uGzXW2yJ7lgL80eX-53" value="&lt;font style=&quot;font-size: 14px&quot;&gt;Sync .yml files&lt;/font&gt;" style="edgeLabel;html=1;align=center;verticalAlign=middle;resizable=0;points=[];" vertex="1" connectable="0" parent="kvG1uGzXW2yJ7lgL80eX-52">
          <mxGeometry x="0.0857" relative="1" as="geometry">
            <mxPoint x="-0.99" y="-2" as="offset" />
          </mxGeometry>
        </mxCell>
        <mxCell id="kvG1uGzXW2yJ7lgL80eX-77" value="&lt;font style=&quot;font-size: 24px&quot;&gt;Sitecore CI/CD flow&lt;/font&gt;" style="text;html=1;align=center;verticalAlign=middle;resizable=0;points=[];autosize=1;" vertex="1" parent="1">
          <mxGeometry x="290" y="50" width="220" height="20" as="geometry" />
        </mxCell>
      </root>
    </mxGraphModel>
  </diagram>
</mxfile>
